<svg xmlns="http://www.w3.org/2000/svg" width="230.44" height="23.971" viewBox="0 0 230.44 23.971"><defs><style>.a,.b{fill:#eaa200;}.a{opacity:0.2;}</style></defs><g transform="translate(-590.031 -300.836)"><path class="a" d="M1879.712,2565.928a3.987,3.987,0,0,1-1.432-.266c-56.97-21.852-185.278-.016-186.567.207a4,4,0,1,1-1.364-7.883c5.353-.927,131.788-22.427,190.8.207a4,4,0,0,1-1.433,7.736Z" transform="translate(-1070.122 -2241.12)"/><path class="b" d="M1913.469,2567.717a3.987,3.987,0,0,1-1.432-.266c-67.344-25.831-218.8-.056-220.324.207a4,4,0,1,1-1.364-7.883c6.3-1.091,155.17-26.407,224.553.207a4,4,0,0,1-1.433,7.736Z" transform="translate(-1097 -2247.015)"/></g></svg>